<?xml version="1.0" encoding="utf-8"?>
<!-- Generator: Adobe Illustrator 22.1.0, SVG Export Plug-In . SVG Version: 6.00 Build 0)  -->
<svg version="1.1" id="Layer_1" xmlns="http://www.w3.org/2000/svg" xmlns:xlink="http://www.w3.org/1999/xlink" x="0px" y="0px"
	 viewBox="0 0 574.3 200.8" style="enable-background:new 0 0 574.3 200.8;" xml:space="preserve">
<style type="text/css">
	.st0{opacity:0.8;fill:#FFDBE2;}
	.st1{fill:#FFFFFF;}
	.st2{opacity:0.2;}
	.st3{fill:#333333;}
	.st4{fill:#808080;}
	.st5{fill:#FFDBE2;}
	.st6{fill:#FFF3F6;}
</style>
<g>
	<g>
		<g>
			<path class="st1" d="M0.5,177.7c1-7.7,2-15.7,3-23.6c2.8-24,4.2-49.8,4.2-78.7c0-15.3-0.2-31-0.4-46.1l0-0.4
				C7.1,23.1,7.1,17.3,7,11.5c0-0.3,0-0.6,0-0.8C6.9,9,6.9,7.4,7.6,6.1c0.3-0.3,1-0.8,1.7-0.8c0,0,0.1,0,0.1,0
				c0.7,0.1,1.7,0.8,2,1.4c0.5,0.8,0.6,1.8,0.8,2.6l0,0.2c0.7,3.9,1.4,7.8,2,11.5c0.4,2.6,0.8,4.8-0.9,7c-1.1,1.5-1,3.7-0.8,5.9
				c0,0.6,0.1,1.2,0.1,1.8c0.3,22.3,0.6,46.2-0.3,70.1c-0.8,23.3-3,47.1-6.5,72.5c-0.3,2.1-0.5,4.2-0.5,6.3c0,0.8,0.3,1.5,0.8,2
				c0.5,0.4,1.1,0.6,1.9,0.6c0.1,0,0.2,0,0.3-0.1c2.2-0.1,4.1-0.5,5.9-0.9c24.8-5.9,33.1-7.8,58.1-11.1c10.1-1.3,15.5-1.8,18.1-1.8
				c1.6,0,1.9,0.1,2.5,0.4c0.1,0.1,0.2,0.1,0.4,0.1l0.1,0.1c0.6,0.3,1,0.8,1,1.3c0.1,0.6-0.1,1.3-0.7,1.7l-0.1,0.1
				c-5.3,1.8-8.7,2.2-13,2.6c-1.2,0.1-2.4,0.2-3.9,0.4c-2.3,0.3-4.6,0.6-6.7,0.8c-14.8,1.7-24.5,2.8-51.5,9.6
				c-2.6,0.7-5,1.2-7.3,1.5c-1,0.1-2,0.2-2.9,0.2l-0.1,0c-0.5,0-1,0-1.5-0.1c-3.2-0.3-5.6-2.3-6.4-5.4c-0.6-2.4-0.4-4.8-0.1-7
				L0.5,177.7z"/>
			<path class="st1" d="M97.9,142.8c-0.3,0.5-1.1,0.9-2.5,1.3c-1.3,0.4-2.8,0.8-4.3,1.1c-1.5,0.3-2.8,0.5-3.7,0.6
				c-0.3,1.8-1.2,4.2-2.5,7.2c-1.3,3-3.2,5.9-5.6,8.6c-2.1,2.1-4.1,3.2-5.9,3.2c-0.3,0-0.6,0-0.9-0.1c-2.1-0.4-3.9-2.4-5.3-5.9
				c-1.1-2.8-1.8-5.8-2-8.8c-0.1-2.5-0.3-4.6-0.3-6.5l-0.2-0.1c-0.7-0.5-1.5-1.4-2.2-2.5c-1-2.1-0.8-4.6,0.8-7.5
				c1.5-3,3.6-5.5,6.3-7.6c4.7-3.5,9-4,12.8-1.6c2.4,1.7,4.1,4.1,4.9,7.1c0.9,4.1,1,8,0.3,11.7c3.6-0.4,6-0.7,7.3-1
				c0.9-0.1,1.6-0.2,2-0.2c0.4,0,0.7,0.1,0.9,0.5C97.9,142.4,98,142.6,97.9,142.8z M76.9,142.7c2.8,0.5,5.2,0.7,7,0.5
				c0.5-2.3,0.7-4.9,0.6-7.9c-0.1-3.1-0.9-5.3-2.3-6.7c-2.1-1.8-4.8-1.8-8.1-0.2c-1,0.5-2,1.2-3,2.2c-1.9,2.1-3,3.6-3.3,4.5
				c-0.4,0.8-0.7,1.5-0.9,2.3c0.3-1,0.7-1.8,1-2.4c1.3-2.1,2.8-3.1,4.7-3.1c1.3,0.1,2.3,0.6,2.9,1.6l0.2,0.3l-0.3,0.1
				c-0.3,0.1-0.6,0.1-0.8,0.2c-0.4,0-0.8,0.1-1.3,0.4c-0.4,0.3-0.8,0.8-1.2,1.8c-0.4,1-0.9,2.4-1.4,4.5
				C72,141.5,74.1,142.1,76.9,142.7z M70.1,148.7c0,1.2,0.1,3,0.5,5.3c0.3,1.4,0.7,2.7,1.3,4c0.8,1.5,1.5,2.3,2.3,2.5
				c0.8,0.1,1.7-0.3,2.7-1.3c3-3.2,5.1-7.4,6.2-12.7c-1.8,0.3-3.9,0.4-6.4,0.3c-2.5-0.1-4.6-0.5-6.4-1.2
				C70.1,146.5,70,147.5,70.1,148.7z"/>
			<path class="st1" d="M102.5,177.4c1-7.7,2-15.7,3-23.6c2.8-24,4.2-49.8,4.2-78.7c0-15.3-0.2-31-0.4-46.1l0-0.4
				c-0.1-5.8-0.2-11.6-0.3-17.4c0-0.3,0-0.6,0-0.8c-0.1-1.7-0.1-3.2,0.7-4.6c0.3-0.3,1-0.8,1.7-0.8c0,0,0.1,0,0.1,0
				c0.7,0.1,1.7,0.8,2,1.4c0.5,0.8,0.6,1.8,0.8,2.6l0,0.2c0.7,3.9,1.4,7.8,2,11.5c0.4,2.6,0.8,4.8-0.9,7c-1.1,1.5-1,3.7-0.8,5.9
				c0,0.6,0.1,1.2,0.1,1.8c0.3,22.3,0.6,46.2-0.3,70.1c-0.8,23.3-3,47.1-6.5,72.5c-0.3,2.1-0.5,4.2-0.5,6.3c0,0.8,0.3,1.5,0.8,2
				c0.5,0.4,1.1,0.6,1.9,0.6c0.1,0,0.2,0,0.3-0.1c2.2-0.1,4.1-0.5,5.9-0.9c24.8-5.9,33.1-7.8,58.1-11.1c10.1-1.3,15.5-1.8,18.1-1.8
				c1.6,0,1.9,0.1,2.5,0.4c0.1,0.1,0.2,0.1,0.4,0.1l0.1,0.1c0.6,0.3,1,0.8,1,1.3c0.1,0.6-0.1,1.3-0.7,1.7l-0.1,0.1
				c-5.3,1.8-8.7,2.2-13,2.6c-1.2,0.1-2.4,0.2-3.9,0.4c-2.3,0.3-4.6,0.6-6.7,0.8c-14.8,1.7-24.5,2.8-51.5,9.6
				c-2.6,0.7-5,1.2-7.3,1.5c-1,0.1-2,0.2-2.9,0.2l-0.1,0c-0.5,0-1,0-1.5-0.1c-3.2-0.3-5.6-2.3-6.4-5.4c-0.6-2.4-0.4-4.8-0.1-7
				L102.5,177.4z"/>
			<path class="st1" d="M191.7,150.6c4.6-4.2,7.8-7.6,9.4-10.2c0.6,0.1,0.8,0.3,0.9,0.3c0,0.1,0.1,0.2,0.1,0.3c0,0.1,0,0.2,0,0.3
				c0,0.1,0,0.1,0,0.1c-1,1.9-3.2,5-6.9,9.3c-3.7,4.4-7.8,7.5-12.3,9.5c-0.7,0.3-1.3,0.6-2.1,0.9c-0.7,0.2-1.4,0.3-2.1,0.5
				c-1.4,0.3-3,0.1-4.4-0.3c-1.5-0.5-2.5-1.3-3.3-2.5c-0.7-1.1-1.2-2.3-1.5-3.5c-0.3-1.2-0.4-2.5-0.4-3.7c0.1-1.2,0.1-2.5,0.2-3.7
				l0.2-3.7c0-0.3,0-0.6,0.1-0.8c0.1-1,0.1-1.9,0-2.9c-0.1-0.3-0.1-0.5-0.2-0.7c-0.1-0.1-0.1-0.1-0.2-0.2c0,0-0.1,0-0.2,0
				c-0.2,0-0.5,0.1-0.8,0.2l-0.5,0.2c-0.2,0.1-0.5,0.1-0.8,0.1c-0.3,0-0.6-0.1-0.8-0.3c0-0.1-0.1-0.1-0.1-0.1l-0.1-0.1
				c0-0.1-0.1-0.1-0.1-0.2c-0.1,0-0.1,0-0.1-0.1c-0.1-0.3-0.2-0.7-0.2-1c0.1-0.8,0.4-1.5,1-2l0.1-0.1l0.1-0.1c1.2-0.6,2.5-1.1,4-1.3
				c0.8-0.1,1.5,0.1,2.2,0.5c0.6,0.4,1,1,1.2,1.6c0.3,1.2,0.4,2.3,0.4,3.4c0,0.1,0,0.1,0,0.2c-0.1,1.2-0.1,2.3-0.3,3.5l-0.3,3.5
				l-0.1,1.8c-0.1,0.6-0.1,1.1-0.1,1.7c0.1,0.6,0.1,1.2,0.1,1.7c0.1,0.1,0.1,0.3,0.1,0.5c0.1,0.4,0.1,0.8,0.1,1.2
				c0.1,0.6,0.2,1.1,0.4,1.6c0.2,0.6,0.5,1,1,1.3c0.4,0.3,1,0.4,1.6,0.5c0.6,0.1,1.2,0,1.9-0.1C182.8,157.2,187,154.9,191.7,150.6z
				 M174.5,125.8L174.5,125.8c0.1,0.4,0,0.8-0.3,1.2c-0.3,0.3-0.7,0.6-1,0.8c-0.8,0.5-1.7,0.7-2.6,0.8c-1,0.1-1.9,0-2.9-0.2
				c-0.4-0.1-0.9-0.3-1.3-0.6c-0.5-0.3-0.8-0.8-0.9-1.3c0-0.6,0.1-1,0.5-1.4c0.3-0.3,0.7-0.6,1.2-0.8c0.8-0.4,1.7-0.6,2.7-0.6
				c1-0.1,1.9,0.1,2.8,0.3c0.1,0,0.1,0,0.1,0c0.2,0.1,0.3,0.1,0.6,0.2c0.2,0.1,0.4,0.2,0.6,0.3C174.3,124.9,174.5,125.4,174.5,125.8
				z"/>
			<path class="st1" d="M212.9,149c-1.8,0.7-3.5,1.5-5.2,2.3l-0.3,0.1c0,0.1,0,0.1,0,0.1c0.1,0,0.1,0.1,0.1,0.1
				c0.1,0,0.1,0.1,0.1,0.1c0.1,0,0.1,0.1,0.1,0.1c0.1,0,0.2,0.1,0.3,0.1l0.4,0.2l1.6,1l1.5,1.2c0.3,0.3,0.6,0.6,1,0.8
				c0.1,0.1,0.3,0.3,0.5,0.4c1.8,1.8,3.2,3.9,4.2,6.3c0.9,2.4,1.4,4.9,1.4,7.4c0,2.6-0.3,5-0.8,7.5c-0.5,2.4-1.1,4.9-1.8,7.3
				c-0.7,2.4-1.6,4.8-2.7,7c-1.1,2.3-2.4,4.4-3.9,6.5c-0.3,0.5-0.8,1-1.3,1.4c-0.6,0.5-1.2,0.8-1.9,0.9c-0.7,0.1-1.4,0.1-2-0.1
				c-0.7-0.1-1.2-0.4-1.8-0.9c-1.1-0.9-1.7-2-2.1-3.3c-0.2-0.3-0.7-4-1.3-10.9c-0.7-6.9-0.7-17,0-30.3c0.1-2.5,0.3-5,0.7-7.5
				c2.2-17.5,4.3-30.5,6.4-38.8c2-8.4,3.3-12.8,3.7-13.3c0.2-0.6,0.5-1.2,0.8-1.8c0.3-0.6,0.7-1.1,1.1-1.7c0.2-0.3,0.4-0.5,0.7-0.8
				c0.3-0.2,0.6-0.4,1-0.6c0.4-0.1,0.8-0.2,1.2-0.2c0.4,0.1,0.8,0.1,1.1,0.3l0.1,0c1,0.7,1.5,1.5,1.7,2.5c0.1,0.6,0.1,1,0.1,1.5
				c0,0.5,0,1-0.1,1.4c-0.2,1.9-0.5,3.7-1,5.5c-0.1,0.3-0.2,0.6-0.3,1c-0.1,0.6-0.3,1.2-0.4,1.7l-0.8,2.6c-0.2,0.6-0.3,1.2-0.5,1.7
				c-0.1,0.3-0.2,0.6-0.3,1c-0.1,0.3-0.2,0.6-0.3,0.8c-0.1,0.6-0.3,1.2-0.5,1.7l-3.8,10.4c-0.2,0.6-0.4,1.2-0.7,1.9
				c-0.3,1.1-0.8,2.2-1.2,3.3l-1.9,5.1c-0.3,1.8-0.7,4.3-1.1,7.7c-0.3,3.3-0.5,6-0.5,8c0.9-0.1,1.9-0.3,2.8-0.5
				c0.3-0.1,1.2-0.3,2.7-0.8c1.5-0.4,3.3-1,5.4-1.6c2.3-0.7,4.6-1.3,7-2c2.3-0.7,4.3-1.3,5.9-1.7c1.6-0.5,2.4-0.7,2.6-0.7
				c0,0,0.1,0.1,0.1,0.1l0.2,0.1c0.6,1.1,0.2,1.9-1,2.5c-1.2,0.5-6.5,2.3-15.8,5.4C213.4,148.8,213.2,149,212.9,149z M207.6,154.9
				L207.6,154.9c-0.9-0.5-1.8-0.8-2.7-1c-0.5,0-0.8,0.1-1,0.5c-0.2,0.4-0.3,0.8-0.4,1.3c-0.1,0.7-0.1,1.4-0.2,2.1
				c0,0.2,0,0.5-0.1,0.8c0,0.4-0.1,0.8-0.1,1.2c-0.1,0.6-0.1,1.2-0.1,1.7c-0.2,4-0.3,7.9-0.2,11.9c0,4,0.2,7.9,0.5,11.9
				c0.2,2,0.4,4,0.6,5.9c0.1,0.3,0.1,0.7,0.1,1c0.1,0.7,0.1,1.3,0.3,1.9c0.1,0.5,0.2,0.9,0.4,1.3c0.1,0.2,0.2,0.3,0.3,0.4l0.1,0
				c0.1,0,0.1,0,0.1,0c0.8-0.3,1.4-0.9,2.1-1.7c0.6-0.8,1.2-1.5,1.6-2.4c1-1.7,1.8-3.5,2.5-5.3c1.4-3.7,2.5-7.5,3.1-11.3
				c0.3-1.9,0.5-3.9,0.6-5.8c0.1-2-0.1-3.9-0.5-5.8c-0.6-1.9-1.3-3.7-2.5-5.2C210.9,157.1,209.4,155.8,207.6,154.9z M215,94.6
				c-0.1-0.1-0.1-0.1-0.1-0.2c-0.1-0.1-0.1-0.1-0.2-0.1c-0.1-0.1-0.2,0-0.3,0.1c-0.1,0.1-0.3,0.2-0.5,0.4c0,0-0.6,1.7-1.9,5
				c-1.2,3.4-2.5,9-3.7,16.9l-0.9,5.9c0.1-0.3,0.3-1,0.7-1.7c1-2.4,2.3-5.9,3.8-10.6c1.5-4.7,2.6-9.9,3.3-15.5
				C215,94.7,215,94.7,215,94.6z"/>
			<path class="st1" d="M243,158.4l-1-0.1c-0.2,0-0.5-0.1-0.7-0.1c-0.1,0-0.2,0-0.3-0.1c-0.1,0-0.2,0-0.3-0.1
				c-0.2,0-0.4-0.1-0.6-0.1c-1.4-0.3-2.6-0.9-3.8-1.6c-1.2-0.8-2.1-1.7-3-2.8c-0.8-1.2-1.4-2.4-1.8-3.7c-0.4-1.4-0.6-2.7-0.6-4.1
				c0.1-1.4,0.3-2.7,0.7-4.1c0.8-2.6,1.7-5.1,2.9-7.5c1.2-2.5,2.7-4.8,4.5-6.8c0.9-1,1.9-2,3-2.8c0.5-0.5,1.1-0.9,1.7-1.2
				c0.7-0.3,1.3-0.6,2.1-0.8c1.4-0.3,2.9-0.1,4.3,0.7c0.7,0.4,1.1,1,1.4,1.9c0.1,0.8,0.2,1.5,0,2.2c-0.5,2.8-1.8,5.3-3.5,7.5
				c-1.8,2.1-3.9,3.9-6.3,5.2c-1.2,0.6-2.2,1.4-3.2,2.3c-0.4,0.4-0.8,0.9-1.2,1.5c-0.3,0.6-0.5,1.1-0.6,1.7
				c-0.2,1.2-0.1,2.5,0.3,3.7c0.3,1.3,1,2.3,1.9,3.3c0.4,0.4,0.9,0.8,1.5,1.1c0.6,0.3,1.1,0.5,1.8,0.6c1.2,0.3,2.6,0.4,3.9,0.4
				c2.2-0.2,4.3-0.7,6.4-1.5c2.1-0.8,4-1.8,5.9-3.1s3.6-2.5,5.4-3.9c1.7-1.3,3.3-2.7,5-4.2c0.1,0,0.1-0.1,0.1-0.1
				c0.2-0.5,0.5-0.8,1-0.9c0.2-0.1,0.5-0.1,0.7,0.1c0.1,0.1,0.3,0.1,0.3,0.3c0,0.1,0,0.1,0,0.1c0.1,0.1,0.1,0.2,0.1,0.3l-0.2,0.3
				c-0.2,0.2-0.4,0.5-0.6,0.7c-0.6,0.7-1.3,1.4-1.9,2.1c-1,1-1.9,1.9-2.8,2.8c-1.9,1.9-4,3.7-6.1,5.3c-2.1,1.7-4.4,3.1-6.9,4.2
				c-2.6,1.1-5.2,1.7-8,1.6c-0.1,0-0.1,0-0.1,0c-0.1,0-0.3,0-0.3,0L243,158.4z M242.3,135.1c1.7-0.9,3-2.2,3.9-3.9
				c0.5-0.8,0.8-1.7,0.8-2.6c0-0.1,0.1-0.3,0.1-0.4c0-0.1,0-0.2,0-0.3c0-0.1,0-0.3-0.1-0.3c-0.1-0.1-0.1-0.2-0.3-0.2
				c-0.1,0-0.2,0-0.3,0l-0.1,0.1c-0.1,0.1-0.1,0.1-0.2,0.2c-0.1,0-0.1,0.1-0.1,0.1c-0.1,0.1-0.2,0.2-0.3,0.3
				c-0.1,0.1-0.2,0.1-0.3,0.2c-0.3,0.3-0.7,0.6-1,0.9c-0.7,0.7-1.2,1.4-1.8,2.1c-0.1,0.1-0.1,0.3-0.3,0.4c-0.3,0.4-0.8,1-1.2,1.8
				c-0.5,0.8-0.8,1.6-1.1,2.4c0,0,0.1,0,0.3,0c0.1-0.1,0.3-0.1,0.6-0.2c0.3-0.1,0.5-0.1,0.8-0.3C241.8,135.4,242,135.3,242.3,135.1
				L242.3,135.1z"/>
			<path class="st1" d="M368.2,141.8c0,0.1-0.1,0.1-0.1,0.2c-1.2,1.5-2.5,3-3.6,4.5l-0.3,0.3l-3.8,4.9c-2.4,3-5.1,6.2-8,9.5
				c-6.1,6.9-11.8,12.8-17.3,17.9c-3.3,3.1-6.4,5.8-9.4,8.2c-3.6,3-7.1,5.4-10.3,7.4c-3.3,2.2-7.4,4-12.1,5.4
				c-1,0.2-1.9,0.4-2.8,0.5l-0.8,0.1c-0.5,0-1,0.1-1.4,0.1l-0.3,0l-0.1,0c-0.1,0-0.3,0-0.6,0c-0.3,0-0.8-0.1-1.2-0.1
				c-2.5-0.2-4.9-0.9-7-1.9c-2.1-1.1-4.1-2.5-5.8-4.4c-1.5-1.6-2.8-3.5-4-5.7c-1.9-3.4-3.4-7.6-4.5-12.3c-1.7-7-2.6-15.5-2.7-25.2
				c-0.1-15.3,1.7-31.9,5.3-49.6c3.4-16.6,8.5-32.4,15.2-47.5c3.9-8.6,7.9-15.9,12.1-22.1c2.6-3.8,5.3-7.2,8-10
				c1.4-1.5,3-2.9,4.9-4.4c2-1.5,3.9-2.7,5.8-3.5c2.3-1,4.6-1.6,6.9-1.8c2.4-0.1,4.8,0.2,7.1,0.9c2.3,0.8,4.4,1.8,6.3,3.4
				c1.7,1.3,3.3,3,4.8,5l1,1.4l1,1.7c0.1,0.1,0.1,0.3,0.3,0.5l0.6,1.3c0.2,0.3,0.3,0.6,0.5,1c1,2.4,1.7,4.5,2.1,6.3
				c0.9,3.9,1.5,8.1,1.5,12.8c0.1,4.3-0.2,8.6-0.7,12.7c-0.6,4.3-1.4,8.4-2.3,12.4c-0.7,3.2-1.6,6.4-2.5,9.5
				c-0.2,0.8-0.5,1.7-0.7,2.5l-1.8,5.9l-1,3c-0.3,1-0.6,1.9-0.8,2.8c-0.1,0.9-0.5,1.6-1.2,2.1c-0.7,0.6-1.5,0.8-2.4,0.7
				c-1.7-0.2-2.3-1.1-1.7-2.7c0.1-0.1,0.1-0.3,0.2-0.5c0.1-0.1,0.2-0.3,0.3-0.6c0.1-0.1,0.2-0.3,0.3-0.4c0.1-0.1,0.1-0.2,0.1-0.2
				c0.2-0.3,1.2-2.6,2.8-6.8c1.7-4.3,3.3-9.7,4.9-16.2c1.6-6.6,2.4-13.5,2.3-20.7c0-7.2-1.4-14-4.5-20.3l-0.9-1.9
				c-0.1-0.1-0.1-0.1-0.1-0.3c0,0-0.1,0-0.1-0.1l-0.8-1.4l-0.8-1.1c-1.1-1.6-2.4-2.8-3.7-3.9c-1.5-1.1-3-1.9-4.6-2.3
				c-1.7-0.5-3.3-0.7-5-0.6c-1.6,0.1-3.2,0.6-4.9,1.4c-1.4,0.6-3,1.7-4.7,2.9c-1.6,1.3-3,2.6-4.2,3.9c-2.4,2.6-4.8,5.7-7.2,9.3
				c-3.9,5.9-7.7,12.9-11.3,21.2c-3.1,7-5.9,14.6-8.4,22.7c-2.4,7.6-4.4,15.4-5.9,23.5c-1.6,7.9-2.8,15.9-3.6,24
				c-0.9,8.2-1.3,16.2-1.4,24.2c0,4.2,0.2,8.2,0.5,12c0.4,4.3,0.9,8.2,1.7,11.7c1,4.2,2.2,7.8,3.8,10.8c1.9,3.6,4.2,6.1,6.9,7.5
				c1.5,0.8,3,1.2,4.7,1.4c0.3,0,0.5,0,0.8,0c0.2,0.1,0.3,0.1,0.6,0.1l0.3,0c0.1,0,0.1,0,0.1,0c0.3,0,0.6-0.1,0.9-0.1
				c0.2,0,0.4-0.1,0.6-0.1c0.7-0.1,1.3-0.1,1.9-0.3l0.1-0.1c9.8-2.7,19.4-8.1,28.9-16.4c9.5-8.2,17.4-16.3,23.8-24
				c6.4-7.8,9.9-12.1,10.5-13.2c0.1-0.2,0.3-0.5,0.6-0.8c0.3-0.3,0.7-0.6,1-0.8c0.4-0.1,0.8-0.1,1,0.1
				C368.9,139.8,369,140.7,368.2,141.8z"/>
			<path class="st1" d="M396.9,141.8c-0.3,0.5-1.1,0.9-2.5,1.3c-1.3,0.4-2.8,0.8-4.3,1.1c-1.5,0.3-2.8,0.5-3.7,0.6
				c-0.3,1.8-1.2,4.2-2.5,7.2c-1.3,3-3.2,5.9-5.6,8.6c-2.1,2.1-4.1,3.2-5.9,3.2c-0.3,0-0.6,0-0.9-0.1c-2.1-0.4-3.9-2.4-5.3-5.9
				c-1.1-2.8-1.8-5.8-2-8.8c-0.1-2.5-0.3-4.6-0.3-6.5l-0.2-0.1c-0.7-0.5-1.5-1.4-2.2-2.5c-1-2.1-0.8-4.6,0.8-7.5
				c1.5-3,3.6-5.5,6.3-7.6c4.7-3.5,9-4,12.8-1.6c2.4,1.7,4.1,4.1,4.9,7.1c0.9,4.1,1,8,0.3,11.7c3.6-0.4,6-0.7,7.3-1
				c0.9-0.1,1.6-0.2,2-0.2c0.4,0,0.7,0.1,0.9,0.5C397,141.4,397,141.6,396.9,141.8z M375.9,141.7c2.8,0.5,5.2,0.7,7,0.5
				c0.5-2.3,0.7-4.9,0.6-7.9c-0.1-3.1-0.9-5.3-2.3-6.7c-2.1-1.8-4.8-1.8-8.1-0.2c-1,0.5-2,1.2-3,2.2c-1.9,2.1-3,3.6-3.3,4.5
				c-0.4,0.8-0.7,1.5-0.9,2.3c0.3-1,0.7-1.8,1-2.4c1.3-2.1,2.8-3.1,4.7-3.1c1.3,0.1,2.3,0.6,2.9,1.6l0.2,0.3l-0.3,0.1
				c-0.3,0.1-0.6,0.1-0.8,0.2c-0.4,0-0.8,0.1-1.3,0.4c-0.4,0.3-0.8,0.8-1.2,1.8c-0.4,1-0.9,2.4-1.4,4.5
				C371,140.5,373.1,141.1,375.9,141.7z M369.1,147.8c0,1.2,0.1,3,0.5,5.3c0.3,1.4,0.7,2.7,1.3,4c0.8,1.5,1.5,2.3,2.3,2.5
				c0.8,0.1,1.7-0.3,2.7-1.3c3-3.2,5.1-7.4,6.2-12.7c-1.8,0.3-3.9,0.4-6.4,0.3c-2.5-0.1-4.6-0.5-6.4-1.2
				C369.1,145.5,369,146.5,369.1,147.8z"/>
			<path class="st1" d="M398.7,154.8c-1,0.2-2,0.3-3,0.3c-1.1,0-2.1-0.4-3-1.2c-0.4-0.3-0.7-0.8-1-1.2c-0.3-0.5-0.5-1-0.6-1.6
				c-0.1-1.2,0.1-2.2,0.7-3.2c0.5-0.9,1.2-1.7,1.9-2.4c1.4-1.5,2.8-2.9,4.4-4.2c3.1-2.6,6.7-4.5,10.6-5.6c3.9-1,7.9-1.3,12-0.8
				c1,0.1,2.1,0.4,3,0.8c0.5,0.3,0.9,0.5,1.4,0.8c0.2,0.2,0.4,0.3,0.6,0.6c0.1,0.1,0.3,0.3,0.3,0.5c0.1,0.2,0.1,0.3,0.1,0.6
				c-0.1,0.4-0.2,0.8-0.5,1c-0.3,0.3-0.6,0.4-1,0.4c-0.3,0-0.5,0-0.6-0.1c-0.1,0-0.1-0.1-0.2-0.1l-0.8-0.1l-0.7-0.2
				c-0.1,0-0.3,0-0.5-0.1c-0.1,0-0.1,0-0.2,0c-0.2-0.1-0.3-0.1-0.6-0.1c-0.3,0-0.6-0.1-0.9-0.1c-1.9-0.2-3.9-0.2-5.9,0.1
				c-1.9,0.2-3.8,0.7-5.6,1.5c-1.8,0.8-3.4,1.7-5,2.9c-1.5,1.2-2.9,2.6-4.1,4.1c-0.3,0.3-0.5,0.6-0.7,1c-0.1,0.1-0.1,0.1-0.2,0.2
				l-0.4,0.6l-0.2,0.3c-0.1,0.1-0.1,0.1-0.1,0.2c-0.1,0.1,0,0.3,0.1,0.4c0.1,0.1,0.2,0.1,0.3,0.1l0.1,0.1c0.1-0.1,0.1-0.1,0.1-0.1
				l0.3,0c0.2,0,0.3-0.1,0.5-0.1c0.1-0.1,0.1-0.1,0.2-0.1c1.8-0.6,3.4-1.5,5-2.8c0.4-0.3,0.8-0.6,1.2-1c0.2-0.1,0.4-0.3,0.6-0.4
				c0.2-0.1,0.4-0.3,0.6-0.4c0.7-0.6,1.4-1.1,2-1.7c0.1-0.1,0.2-0.1,0.3-0.2c0.8-0.7,1.6-1.3,2.4-1.9c0.8-0.6,1.7-1,2.7-1.5
				c0.6-0.1,1.1-0.2,1.7-0.1c0.6,0.1,1,0.4,1.4,0.9c0.6,0.9,1.1,1.8,1.4,2.8c0,0.1,0,0.1,0,0.1c0.3,0.9,0.6,1.8,1,2.6
				c0.5,0.9,1.1,1.6,1.9,2.1c1.7,1,3.5,1.2,5.5,1c1.9-0.3,3.8-0.9,5.5-2c1.7-0.9,3.4-2,5-3.2c0.8-0.6,1.6-1.2,2.3-1.8l1.2-0.9
				l0.6-0.5c0.1-0.1,0.1-0.1,0.2-0.1c0.1-0.1,0.3-0.2,0.5-0.3l-0.1,0c0.1,0,0.1,0,0.1,0c0.1-0.1,0.1-0.1,0.2-0.1
				c0.1-0.1,0.2-0.1,0.3-0.1c0.2-0.1,0.4,0,0.6,0.1l0.1,0c0.1,0.1,0.2,0.1,0.3,0.3c0.1,0.1,0.2,0.3,0.2,0.5c0,0.1,0,0.3-0.1,0.5
				c-0.1,0.1-0.1,0.1-0.1,0.1c0,0.1-0.1,0.1-0.1,0.1l-0.1,0.1c-0.1,0.2-0.3,0.4-0.6,0.6l-0.5,0.6l-0.1-0.1c-0.7,0.8-1.4,1.4-2.3,1.9
				c-0.8,0.6-1.7,1.2-2.5,1.7c-1.7,1-3.4,2-5.2,2.8c-1.8,0.9-3.7,1.7-5.6,2.2c-1.9,0.7-3.9,1-6,0.9c-1-0.1-2-0.4-2.9-1
				c-0.9-0.5-1.7-1.2-2.4-1.9c-0.1-0.1-0.1-0.1-0.2-0.3c-0.3-0.3-0.6-0.6-0.8-0.8l-0.5-0.6c-0.1-0.1-0.1-0.1-0.1-0.1
				c-0.1-0.1-0.2-0.3-0.3-0.3c-0.3-0.3-0.7-0.5-1-0.5c-0.4,0-0.8,0.1-1.2,0.3c-0.5,0.3-1,0.8-1.5,1.1c-2.6,2.1-5.4,3.9-8.6,5.2
				C400.7,154.4,399.8,154.7,398.7,154.8z"/>
			<path class="st1" d="M436.4,154.8c-1.1-1.7-1.5-3.4-1-5.4c0.3-0.9,0.6-1.7,1.2-2.5c0.3-0.6,0.8-1,1.2-1.5
				c0.2-0.2,0.3-0.4,0.5-0.6c1.2-1.4,2.4-2.6,3.8-3.9c2.6-2.4,5.6-4.4,9-5.8c1.7-0.6,3.4-1.1,5.2-1.4c0.2,0,0.3-0.1,0.5-0.1
				c0.7-0.1,1.4-0.2,2.2-0.2c0.9-0.1,1.8-0.1,2.8,0.1c1,0.1,1.8,0.5,2.6,1.2c0.7,0.7,1.1,1.5,1.3,2.5c0,0.2,0,0.5,0,0.7
				c-0.1,0.2-0.1,0.5-0.1,0.7c0,0.2-0.1,0.3-0.1,0.5c-0.1,0.1-0.1,0.1-0.1,0.2c-0.1,0.3-0.2,0.5-0.3,0.7c-0.2,0.4-0.5,0.8-0.9,1.1
				c-0.3,0.3-0.8,0.6-1.3,0.8c-0.3,0.1-0.6,0.1-0.8-0.1c-0.3-0.1-0.5-0.2-0.7-0.4c-0.2-0.2-0.3-0.4-0.4-0.6
				c-0.1-0.2-0.1-0.4-0.2-0.6c0-0.1,0-0.1,0-0.1c-0.1-0.8-0.6-1.4-1.2-1.9c-0.7-0.3-1.5-0.3-2.3,0c-0.8,0.2-1.7,0.5-2.5,0.8
				c-3.4,1.2-6.4,2.9-9.1,5.1c-1.4,1.2-2.5,2.4-3.6,3.8c-0.1,0.1-0.1,0.1-0.1,0.1c-0.5,0.7-1,1.4-1.2,2.1c-0.3,0.8-0.1,1.5,0.5,2
				c0.6,0.5,1.4,0.8,2.3,0.8c0.8,0.1,1.7,0.1,2.6,0c1.7-0.1,3.5-0.2,5.2-0.6c1.7-0.3,3.4-0.7,5.1-1.2c1.7-0.6,3.4-1.1,5-1.7
				c3.3-1.3,6.5-2.6,9.7-4.1c3.1-1.5,6.2-3.2,9.2-4.9c-0.2-2.1-0.4-4.3-0.6-6.4c-0.4-4-0.9-8-1.3-12c-0.6-6.2-0.9-12.5-0.9-18.7
				c0-6.3,0.4-12.5,1.3-18.7c0.4-3.1,0.8-6.2,1.3-9.3c0.3-1.5,0.5-3,0.9-4.6s0.7-3,1.1-4.6c1.6-6.1,3.6-12,6-17.8
				c2.5-5.8,5.3-11.3,8.7-16.6c6.5-10.9,15.1-20,25.4-27.3l0.2-0.1l0.1,0.1c2.1-1.4,4.4-2.5,6.8-3.2c2.6-0.8,5.1-1.2,7.7-1.3
				c5.3-0.2,10.4,0.5,15.4,2.2c2.6,0.8,4.9,1.9,7.1,3.4c2.2,1.4,4.2,3.1,6.2,4.9c1.9,1.8,3.5,3.9,4.9,6.1c1.2,1.9,2.1,3.9,2.7,6
				l0.3,1.2c0.8,3.1,1.1,6.3,0.9,9.5c-0.2,3.2-0.8,6.3-1.8,9.3c-2,6.1-4.7,11.7-8.2,17.1c-3.4,5.4-7.1,10.5-11.1,15.4
				c-4,4.9-8.3,9.6-12.7,14.2c-8.8,9.1-18,17.7-27.5,26.1c-4.1,3.6-8.1,7.2-12.3,10.7c-0.7,0.6-1.3,1.2-2,1.7c-3.4,3-6.9,6-10.3,8.9
				c-1.3,1.2-2.6,2.3-3.9,3.5l0.6,4.3l0.3,2.2l0.2,1.1c0,0.3,0.1,0.7,0.3,1c0.3,0.6,0.8,1.1,1.5,1.3c0.6,0.3,1.3,0.3,1.9,0.1
				c0.6-0.2,1.2-0.6,1.7-1.2c0.6-0.6,1-1.1,1.6-1.7c0.3-0.3,0.6-0.7,0.9-1c0.7-0.8,1.4-1.6,2.1-2.4l1.6-1.6c0.6-0.6,1.1-1,1.7-1.5
				l0.9-0.8l0.4-0.3l0.5-0.3l0.9-0.7l1-0.6c1.4-0.8,2.8-1.3,4.3-1.6c1.6-0.1,3.1-0.1,4.6,0.3l1.1,0.3c0.2,0.1,0.4,0.1,0.7,0.3
				c0.1,0.1,0.2,0.1,0.3,0.1c0.5,0.2,1,0.4,1.5,0.7c0.2,0.1,0.4,0.2,0.6,0.3c0.6,0.3,1,0.5,1.5,0.8c0.1,0.1,0.3,0.2,0.5,0.3l1.9,1.2
				c1.2,0.8,2.6,1.6,3.9,2.1c2.7,1.3,5.6,1.8,8.6,1.5c0.8-0.1,1.5-0.2,2.2-0.4c0.6-0.1,1.1-0.3,1.7-0.5c0.2,0,0.3-0.1,0.5-0.1
				c0.8-0.3,1.5-0.3,2.3-0.3c0.8,0.1,1.6,0.4,2.3,1l0.4,0.3l-0.5,0.3c-3,1.7-6.2,2.6-9.7,2.8c-3.5,0.1-6.7-0.7-9.8-2.1
				c-0.1-0.1-0.3-0.1-0.4-0.2c-0.3-0.1-0.5-0.2-0.8-0.3l-1.1-0.6l-2.1-1.2c-0.3-0.1-0.5-0.3-0.8-0.4c-0.5-0.3-1-0.5-1.4-0.8
				l-1.1-0.5l-1.2-0.5c-1.5-0.7-3-1-4.6-1c-1.6,0.3-3,0.9-4.3,2c-1.2,1-2.5,2.1-3.6,3.3c-1.2,1.2-2.3,2.4-3.4,3.7
				c-0.2,0.2-0.4,0.4-0.6,0.6c-2,2.3-4.1,4.5-6.4,6.5c-0.7,0.6-1.4,1-2.3,1.3c-0.8,0.3-1.8,0.4-2.7,0.1c-0.9-0.4-1.6-1-2.1-1.8
				c-0.5-0.8-0.8-1.5-1-2.4c-0.6-2.6-1-5.1-1.3-7.7c-0.1-0.5-0.1-1-0.2-1.6c0,0,0,0-0.1,0l-0.6,0.3l-1.2,0.7
				c-0.8,0.5-1.5,0.9-2.3,1.3c-1.6,0.8-3.2,1.7-4.8,2.4c-1.6,0.8-3.2,1.5-4.8,2.3c-1.6,0.7-3.2,1.4-5,1.9c-0.6,0.2-1.2,0.4-1.9,0.6
				c-1,0.4-2.1,0.8-3.1,1.1c-0.1,0.1-0.2,0.1-0.3,0.1c-1.6,0.6-3.1,1.1-4.7,1.6c-3.4,1.2-7,1.7-10.6,1.3c-1-0.1-1.8-0.4-2.6-0.9
				C437.6,156.3,436.9,155.6,436.4,154.8z M517.8,13.9c-1.7,1.5-3.4,3.1-5,4.7c-3.3,3.3-6.3,6.9-8.9,10.6c-0.3,0.3-0.5,0.7-0.8,1
				c-0.4,0.6-0.8,1.2-1.2,1.8l-1.9,2.9l-1.7,3c-0.3,0.5-0.6,1-0.8,1.5l-0.8,1.6l-0.8,1.5l-0.8,1.5c-0.2,0.4-0.3,0.8-0.5,1.1
				c-0.3,0.7-0.6,1.4-1,2.1l-1.3,3.2l-0.3,0.8c-0.1,0.1-0.1,0.2-0.1,0.3c-0.1,0.2-0.1,0.4-0.2,0.6c0,0.1-0.1,0.1-0.1,0.3
				c-0.2,0.4-0.4,0.9-0.5,1.3c-2.2,5.9-4,12-5.3,18.2c-1.3,6.1-2.3,12.4-2.9,18.7c-0.5,6.3-0.9,12.6-0.8,18.9l0,4.8l0.2,4.8
				c0.1,1,0.1,1.9,0.1,3c0,0.6,0,1.2,0,1.8c0.1,1.5,0.2,3.1,0.4,4.6l0,0.1l0.1,0.1l0,0.1l0,0.2l0.1,0.3l0.1,0.6l0.1,1.4l0.3,2.8
				l0.6,4.8l12.2-10.3c1-0.8,1.9-1.6,2.9-2.4c3.3-2.8,6.5-5.6,9.8-8.5c8.3-7.3,16.5-14.8,24.4-22.6c3.9-3.9,7.8-8,11.5-12.1
				c3.7-4.1,7.3-8.4,10.6-12.8c3.4-4.4,6.5-9.1,9.2-13.9c2.7-4.8,4.8-10,6.2-15.4c0.7-3,0.9-5.9,0.8-9c-0.1-3-0.8-5.9-2-8.8
				c-1.3-2.8-2.9-5.2-5.1-7.4c-2.1-2.1-4.4-4.1-7-5.7c-2.5-1.6-5.3-2.8-8.2-3.6c-2.9-0.7-5.9-1.2-8.9-1.4c-3-0.1-6,0.1-9,0.8
				c-2.9,0.7-5.5,2-7.9,3.7l0.1,0l-0.2,0.1C521.3,10.8,519.5,12.4,517.8,13.9z M482.2,128.7c0,0.1,0,0.1,0,0.1
				c0.1-0.1,0.1-0.1,0.1-0.1L482.2,128.7z"/>
		</g>
	</g>
</g>
</svg>
